<?xml version="1.0" encoding="UTF-8"?>
<svg height="128px" viewBox="0 0 128 128" width="128px" xmlns="http://www.w3.org/2000/svg" xmlns:xlink="http://www.w3.org/1999/xlink">
    <filter id="a" height="100%" width="100%" x="0%" y="0%">
        <feColorMatrix color-interpolation-filters="sRGB" values="0 0 0 0 1 0 0 0 0 1 0 0 0 0 1 0 0 0 1 0"/>
    </filter>
    <linearGradient id="b" gradientUnits="userSpaceOnUse" x1="4.621475" x2="123.377983" y1="63.999893" y2="63.999893">
        <stop offset="0" stop-color="#0054a8"/>
        <stop offset="0.498031" stop-color="#0071df"/>
        <stop offset="1" stop-color="#0054a8"/>
    </linearGradient>
    <clipPath id="c">
        <rect height="128" width="128"/>
    </clipPath>
    <clipPath id="d">
        <rect height="128" width="128"/>
    </clipPath>
    <mask id="e">
        <g filter="url(#a)">
            <g clip-path="url(#d)" filter="url(#a)">
                <g clip-path="url(#c)">
                    <path d="m 123.378906 64 c 0 32.703125 -26.585937 59.214844 -59.378906 59.214844 s -59.378906 -26.511719 -59.378906 -59.214844 s 26.585937 -59.21875 59.378906 -59.21875 s 59.378906 26.515625 59.378906 59.21875 z m 0 0" fill="url(#b)"/>
                    <path d="m 123.378906 60 c 0 32.703125 -26.585937 59.214844 -59.378906 59.214844 s -59.378906 -26.511719 -59.378906 -59.214844 s 26.585937 -59.214844 59.378906 -59.214844 s 59.378906 26.511719 59.378906 59.214844 z m 0 0" fill="#006aff"/>
                    <path d="m 64.089844 36.429688 h 30.933594 c 2.976562 0 5.390624 2.414062 5.390624 5.394531 c 0 2.976562 -2.414062 5.390625 -5.390624 5.390625 h -30.933594 c -2.980469 0 -5.394532 -2.414063 -5.394532 -5.390625 c 0 -2.980469 2.414063 -5.394531 5.394532 -5.394531 z m 0 0" fill="#cfcfcf"/>
                    <path d="m 32.976562 55.707031 h 39.066407 c 2.976562 0 5.390625 2.414063 5.390625 5.394531 c 0 2.976563 -2.414063 5.390626 -5.390625 5.390626 h -39.066407 c -2.980468 0 -5.394531 -2.414063 -5.394531 -5.390626 c 0 -2.980468 2.414063 -5.394531 5.394531 -5.394531 z m 0 0" fill="#70a2e4"/>
                    <path d="m 49.0625 74.984375 h 45.960938 c 2.976562 0 5.390624 2.414063 5.390624 5.394531 c 0 2.976563 -2.414062 5.390625 -5.390624 5.390625 h -45.960938 c -2.976562 0 -5.390625 -2.414062 -5.390625 -5.390625 c 0 -2.980468 2.414063 -5.394531 5.390625 -5.394531 z m 0 0" fill="#cfcfcf"/>
                    <path d="m 64.089844 34.230469 h 30.933594 c 2.976562 0 5.390624 2.414062 5.390624 5.390625 c 0 2.980468 -2.414062 5.394531 -5.390624 5.394531 h -30.933594 c -2.980469 0 -5.394532 -2.414063 -5.394532 -5.394531 c 0 -2.976563 2.414063 -5.390625 5.394532 -5.390625 z m 0 0" fill="#ffffff"/>
                    <path d="m 32.976562 53.507812 h 39.066407 c 2.976562 0 5.390625 2.414063 5.390625 5.390626 c 0 2.980468 -2.414063 5.394531 -5.390625 5.394531 h -39.066407 c -2.980468 0 -5.394531 -2.414063 -5.394531 -5.394531 c 0 -2.976563 2.414063 -5.390626 5.394531 -5.390626 z m 0 0" fill="#99c4ff"/>
                    <path d="m 49.0625 72.785156 h 45.960938 c 2.976562 0 5.390624 2.414063 5.390624 5.390625 c 0 2.980469 -2.414062 5.394531 -5.390624 5.394531 h -45.960938 c -2.976562 0 -5.390625 -2.414062 -5.390625 -5.394531 c 0 -2.976562 2.414063 -5.390625 5.390625 -5.390625 z m 0 0" fill="#ffffff"/>
                </g>
            </g>
        </g>
    </mask>
    <mask id="f">
        <g filter="url(#a)">
            <rect fill-opacity="0.8" height="184.32" width="184.32" x="-28.16" y="-28.16"/>
        </g>
    </mask>
    <linearGradient id="g" gradientTransform="matrix(0 0.37 -0.98462 0 295.38501 -30.360001)" gradientUnits="userSpaceOnUse" x1="300" x2="428" y1="235" y2="235">
        <stop offset="0" stop-color="#f9f06b"/>
        <stop offset="1" stop-color="#f5c211"/>
    </linearGradient>
    <clipPath id="h">
        <rect height="128" width="128"/>
    </clipPath>
    <clipPath id="i">
        <rect height="128" width="128"/>
    </clipPath>
    <path d="m 123.378906 64 c 0 32.703125 -26.585937 59.214844 -59.378906 59.214844 s -59.378906 -26.511719 -59.378906 -59.214844 s 26.585937 -59.21875 59.378906 -59.21875 s 59.378906 26.515625 59.378906 59.21875 z m 0 0" fill="url(#b)"/>
    <path d="m 123.378906 60 c 0 32.703125 -26.585937 59.214844 -59.378906 59.214844 s -59.378906 -26.511719 -59.378906 -59.214844 s 26.585937 -59.214844 59.378906 -59.214844 s 59.378906 26.511719 59.378906 59.214844 z m 0 0" fill="#006aff"/>
    <path d="m 64.089844 36.429688 h 30.933594 c 2.976562 0 5.390624 2.414062 5.390624 5.394531 c 0 2.976562 -2.414062 5.390625 -5.390624 5.390625 h -30.933594 c -2.980469 0 -5.394532 -2.414063 -5.394532 -5.390625 c 0 -2.980469 2.414063 -5.394531 5.394532 -5.394531 z m 0 0" fill="#cfcfcf"/>
    <path d="m 32.976562 55.707031 h 39.066407 c 2.976562 0 5.390625 2.414063 5.390625 5.394531 c 0 2.976563 -2.414063 5.390626 -5.390625 5.390626 h -39.066407 c -2.980468 0 -5.394531 -2.414063 -5.394531 -5.390626 c 0 -2.980468 2.414063 -5.394531 5.394531 -5.394531 z m 0 0" fill="#70a2e4"/>
    <path d="m 49.0625 74.984375 h 45.960938 c 2.976562 0 5.390624 2.414063 5.390624 5.394531 c 0 2.976563 -2.414062 5.390625 -5.390624 5.390625 h -45.960938 c -2.976562 0 -5.390625 -2.414062 -5.390625 -5.390625 c 0 -2.980468 2.414063 -5.394531 5.390625 -5.394531 z m 0 0" fill="#cfcfcf"/>
    <path d="m 64.089844 34.230469 h 30.933594 c 2.976562 0 5.390624 2.414062 5.390624 5.390625 c 0 2.980468 -2.414062 5.394531 -5.390624 5.394531 h -30.933594 c -2.980469 0 -5.394532 -2.414063 -5.394532 -5.394531 c 0 -2.976563 2.414063 -5.390625 5.394532 -5.390625 z m 0 0" fill="#ffffff"/>
    <path d="m 32.976562 53.507812 h 39.066407 c 2.976562 0 5.390625 2.414063 5.390625 5.390626 c 0 2.980468 -2.414063 5.394531 -5.390625 5.394531 h -39.066407 c -2.980468 0 -5.394531 -2.414063 -5.394531 -5.394531 c 0 -2.976563 2.414063 -5.390626 5.394531 -5.390626 z m 0 0" fill="#99c4ff"/>
    <path d="m 49.0625 72.785156 h 45.960938 c 2.976562 0 5.390624 2.414063 5.390624 5.390625 c 0 2.980469 -2.414062 5.394531 -5.390624 5.394531 h -45.960938 c -2.976562 0 -5.390625 -2.414062 -5.390625 -5.394531 c 0 -2.976562 2.414063 -5.390625 5.390625 -5.390625 z m 0 0" fill="#ffffff"/>
    <g mask="url(#e)">
        <g clip-path="url(#i)">
            <g mask="url(#f)">
                <g clip-path="url(#h)">
                    <path d="m 128 80.640625 v 47.359375 h -128 v -47.359375 z m 0 0" fill="url(#g)"/>
                    <path d="m 13.308594 80.640625 l 47.355468 47.359375 h 21.214844 l -47.359375 -47.359375 z m 42.421875 0 l 47.363281 47.359375 h 21.214844 l -47.363282 -47.359375 z m 42.429687 0 l 29.839844 29.839844 v -21.210938 l -8.628906 -8.628906 z m -98.160156 7.90625 v 21.214844 l 18.238281 18.238281 h 21.214844 z m 0 0"/>
                </g>
            </g>
        </g>
    </g>
</svg>
