<?xml version="1.0" encoding="UTF-8"?>
<svg height="128px" viewBox="0 0 128 128" width="128px" xmlns="http://www.w3.org/2000/svg" xmlns:xlink="http://www.w3.org/1999/xlink">
    <linearGradient id="a" gradientUnits="userSpaceOnUse" x1="4.621475" x2="123.377983" y1="63.999893" y2="63.999893">
        <stop offset="0" stop-color="#0054a8"/>
        <stop offset="0.498031" stop-color="#0071df"/>
        <stop offset="1" stop-color="#0054a8"/>
    </linearGradient>
    <path d="m 123.378906 64 c 0 32.703125 -26.585937 59.214844 -59.378906 59.214844 s -59.378906 -26.511719 -59.378906 -59.214844 s 26.585937 -59.21875 59.378906 -59.21875 s 59.378906 26.515625 59.378906 59.21875 z m 0 0" fill="url(#a)"/>
    <path d="m 123.378906 60 c 0 32.703125 -26.585937 59.214844 -59.378906 59.214844 s -59.378906 -26.511719 -59.378906 -59.214844 s 26.585937 -59.214844 59.378906 -59.214844 s 59.378906 26.511719 59.378906 59.214844 z m 0 0" fill="#006aff"/>
    <path d="m 64.089844 36.429688 h 30.933594 c 2.976562 0 5.390624 2.414062 5.390624 5.394531 c 0 2.976562 -2.414062 5.390625 -5.390624 5.390625 h -30.933594 c -2.980469 0 -5.394532 -2.414063 -5.394532 -5.390625 c 0 -2.980469 2.414063 -5.394531 5.394532 -5.394531 z m 0 0" fill="#cfcfcf"/>
    <path d="m 32.976562 55.707031 h 39.066407 c 2.976562 0 5.390625 2.414063 5.390625 5.394531 c 0 2.976563 -2.414063 5.390626 -5.390625 5.390626 h -39.066407 c -2.980468 0 -5.394531 -2.414063 -5.394531 -5.390626 c 0 -2.980468 2.414063 -5.394531 5.394531 -5.394531 z m 0 0" fill="#70a2e4"/>
    <path d="m 49.0625 74.984375 h 45.960938 c 2.976562 0 5.390624 2.414063 5.390624 5.394531 c 0 2.976563 -2.414062 5.390625 -5.390624 5.390625 h -45.960938 c -2.976562 0 -5.390625 -2.414062 -5.390625 -5.390625 c 0 -2.980468 2.414063 -5.394531 5.390625 -5.394531 z m 0 0" fill="#cfcfcf"/>
    <path d="m 64.089844 34.230469 h 30.933594 c 2.976562 0 5.390624 2.414062 5.390624 5.390625 c 0 2.980468 -2.414062 5.394531 -5.390624 5.394531 h -30.933594 c -2.980469 0 -5.394532 -2.414063 -5.394532 -5.394531 c 0 -2.976563 2.414063 -5.390625 5.394532 -5.390625 z m 0 0" fill="#ffffff"/>
    <path d="m 32.976562 53.507812 h 39.066407 c 2.976562 0 5.390625 2.414063 5.390625 5.390626 c 0 2.980468 -2.414063 5.394531 -5.390625 5.394531 h -39.066407 c -2.980468 0 -5.394531 -2.414063 -5.394531 -5.394531 c 0 -2.976563 2.414063 -5.390626 5.394531 -5.390626 z m 0 0" fill="#99c4ff"/>
    <path d="m 49.0625 72.785156 h 45.960938 c 2.976562 0 5.390624 2.414063 5.390624 5.390625 c 0 2.980469 -2.414062 5.394531 -5.390624 5.394531 h -45.960938 c -2.976562 0 -5.390625 -2.414062 -5.390625 -5.394531 c 0 -2.976562 2.414063 -5.390625 5.390625 -5.390625 z m 0 0" fill="#ffffff"/>
</svg>
